<svg width="120" height="120" viewBox="0 0 120 120" fill="none" xmlns="http://www.w3.org/2000/svg">
<mask id="mask0_10840_1241" style="mask-type:alpha" maskUnits="userSpaceOnUse" x="0" y="0" width="120" height="120">
<path d="M71.4546 118.908C67.7467 119.625 63.9172 120 60 120C26.8629 120 0 93.1371 0 60C0 26.8629 26.8629 0 60 0C93.1371 0 120 26.8629 120 60C120 63.9172 119.625 67.7467 118.908 71.4546C117.54 70.047 115.942 68.864 114.172 67.9619C110.321 66 105.214 66 95 66C84.7857 66 79.6786 66 75.8282 67.9619C72.4413 69.6876 69.6876 72.4413 67.9619 75.8282C66 79.6786 66 84.7857 66 95C66 105.214 66 110.321 67.9619 114.172C68.864 115.942 70.047 117.54 71.4546 118.908Z" fill="white"/>
</mask>
<g mask="url(#mask0_10840_1241)">
<path d="M60 120C93.1371 120 120 93.1371 120 60C120 26.8629 93.1371 0 60 0C26.8629 0 0 26.8629 0 60C0 93.1371 26.8629 120 60 120Z" fill="#010101"/>
<path opacity="0.6" d="M84.6121 55.6641L85.2838 56.6945C92.8602 68.3169 91.1682 83.5381 81.2157 93.2897C75.3607 99.0265 67.687 101.895 60.0131 101.896C60.0131 101.896 60.0131 101.896 84.6121 55.6641Z" fill="#4BDB4B"/>
<path opacity="0.2" d="M60.0104 69.7151L84.6094 55.6641C60.0105 101.896 60.0104 101.896 60.0104 101.896C60.0104 91.8271 60.0104 80.2894 60.0104 69.7151Z" fill="#4BDB4B"/>
<path d="M35.3879 55.6641L34.7162 56.6945C27.1398 68.3169 28.8318 83.5381 38.7843 93.2897C44.6393 99.0265 52.313 101.895 59.9869 101.896C59.9869 101.896 59.9869 101.896 35.3879 55.6641Z" fill="#4BDB4B"/>
<path opacity="0.6" d="M59.9896 69.7151L35.3906 55.6641C59.9896 101.896 59.9896 101.896 59.9896 101.896C59.9896 91.8271 59.9896 80.2894 59.9896 69.7151Z" fill="#4BDB4B"/>
<path opacity="0.2" d="M60 38.3203V62.5546L81.1893 50.4453L60 38.3203Z" fill="#4BDB4B"/>
<path opacity="0.6" d="M59.9937 38.3203L38.7891 50.445L59.9937 62.5546V38.3203Z" fill="#4BDB4B"/>
<path opacity="0.6" d="M60 38.3002L81.2055 50.4593L60 17.9297V38.3002Z" fill="#4BDB4B"/>
<path d="M59.9937 17.9297L38.7891 50.4432L59.9937 38.2843V17.9297Z" fill="#4BDB4B"/>
</g>
<path d="M70 92.4C70 84.5593 70 80.6389 71.5259 77.6441C72.8681 75.0099 75.0099 72.8681 77.6441 71.5259C80.6389 70 84.5593 70 92.4 70H97.6C105.441 70 109.361 70 112.356 71.5259C114.99 72.8681 117.132 75.0099 118.474 77.6441C120 80.6389 120 84.5593 120 92.4V97.6C120 105.441 120 109.361 118.474 112.356C117.132 114.99 114.99 117.132 112.356 118.474C109.361 120 105.441 120 97.6 120H92.4C84.5593 120 80.6389 120 77.6441 118.474C75.0099 117.132 72.8681 114.99 71.5259 112.356C70 109.361 70 105.441 70 97.6V92.4Z" fill="#030313"/>
<path d="M92.4037 95.4685C92.4095 90.3149 90.3976 85.3638 86.7987 81.6749C86.734 81.6093 86.6569 81.5573 86.5718 81.5218C86.4868 81.4864 86.3956 81.4683 86.3034 81.4685H81.6932C81.5099 81.4685 81.3342 81.541 81.2043 81.6701C81.0744 81.7993 81.0008 81.9746 80.9998 82.1578V86.9001C81.0004 87.0757 81.0677 87.2445 81.1879 87.3724C81.3082 87.5004 81.4726 87.5779 81.6478 87.5894C83.6296 87.7467 85.4793 88.6449 86.8283 90.1052C88.1773 91.5655 88.9265 93.4805 88.9265 95.4685C88.9265 97.4566 88.1773 99.3716 86.8283 100.832C85.4793 102.292 83.6296 103.19 81.6478 103.348C81.4726 103.359 81.3082 103.437 81.1879 103.565C81.0677 103.693 81.0004 103.861 80.9998 104.037V108.779C81.0008 108.962 81.0744 109.138 81.2043 109.267C81.3342 109.396 81.5099 109.469 81.6932 109.469H86.3034C86.3956 109.469 86.4868 109.451 86.5718 109.415C86.6569 109.38 86.734 109.328 86.7987 109.262C90.3976 105.573 92.4095 100.622 92.4037 95.4685Z" fill="#FF0000"/>
<path d="M109 104.037C108.999 103.859 108.93 103.689 108.808 103.561C108.685 103.432 108.517 103.356 108.34 103.348C106.358 103.19 104.508 102.292 103.159 100.832C101.81 99.3716 101.061 97.4566 101.061 95.4685C101.061 93.4805 101.81 91.5655 103.159 90.1052C104.508 88.6449 106.358 87.7467 108.34 87.5894C108.515 87.5779 108.679 87.5004 108.8 87.3724C108.92 87.2445 108.987 87.0757 108.988 86.9001V82.1578C108.988 82.0673 108.97 81.9776 108.935 81.894C108.901 81.8104 108.85 81.7344 108.786 81.6704C108.722 81.6064 108.646 81.5556 108.562 81.521C108.479 81.4863 108.389 81.4685 108.299 81.4685H103.696C103.511 81.469 103.332 81.5432 103.201 81.6749C99.6099 85.3684 97.6007 90.3169 97.6007 95.4685C97.6007 100.62 99.6099 105.569 103.201 109.262C103.332 109.394 103.511 109.468 103.696 109.469H108.311C108.494 109.469 108.669 109.396 108.798 109.267C108.928 109.137 109 108.962 109 108.779V104.037Z" fill="#0073FF"/>
<path d="M91.4789 79.0002C91.3522 79.0006 91.2275 79.0319 91.1157 79.0915C91.0039 79.1512 90.9084 79.2373 90.8376 79.3423C90.7667 79.4474 90.7227 79.5682 90.7093 79.6942C90.6959 79.8202 90.7136 79.9475 90.7607 80.0651C92.6717 84.9756 93.6515 90.1992 93.6499 95.4685C93.6515 100.738 92.6717 105.961 90.7607 110.872C90.7136 110.989 90.6959 111.117 90.7093 111.243C90.7227 111.369 90.7667 111.49 90.8376 111.595C90.9084 111.7 91.0039 111.786 91.1157 111.845C91.2275 111.905 91.3522 111.936 91.4789 111.937H98.4954C98.6221 111.936 98.7468 111.905 98.8586 111.845C98.9704 111.786 99.0659 111.7 99.1367 111.595C99.2076 111.49 99.2516 111.369 99.2651 111.243C99.2784 111.117 99.2608 110.989 99.2136 110.872C95.3337 100.969 95.3337 89.9675 99.2136 80.0651C99.2608 79.9475 99.2784 79.8202 99.2651 79.6942C99.2516 79.5682 99.2076 79.4474 99.1367 79.3423C99.0659 79.2373 98.9704 79.1512 98.8586 79.0915C98.7468 79.0319 98.6221 79.0006 98.4954 79.0002H91.4789Z" fill="#00F3D7"/>
</svg>
