<svg width="512" height="512" viewBox="0 0 512 512" fill="none" xmlns="http://www.w3.org/2000/svg">
<path d="M256 512C397.385 512 512 397.385 512 256C512 114.615 397.385 0 256 0C114.615 0 0 114.615 0 256C0 397.385 114.615 512 256 512Z" fill="white"/>
<path d="M300.485 112.419C269.944 103.203 236.204 103.228 206.226 114.441C199.186 118.051 189.33 123.248 190.277 132.566C192.381 142.194 201.41 147.45 209.481 152.148C210.445 152.709 211.395 153.263 212.319 153.814C237.926 167.218 265.405 176.053 292.863 184.882C305.262 188.868 317.657 192.854 329.874 197.258C354.424 204.912 378.924 213.309 401.272 226.263C400.812 214.333 396.178 203.146 391.34 192.419C373.803 154.762 340.242 124.758 300.485 112.419Z" fill="url(#paint0_linear_10487_2336)"/>
<path d="M157.965 143.451C138.637 159.655 124.404 181.518 115.725 205.07C99.8534 248.871 106.458 299.995 132.647 338.497C155.866 373.339 194.343 398.017 236.02 403.342C305.063 414.196 379.585 369.063 398.401 301.07C395.7 301.587 392.999 302.121 390.295 302.656C373.853 305.908 357.334 309.175 340.493 308.647C291.111 309.467 242.573 287.732 208.5 252.327C180.084 222.939 162.881 183.873 157.965 143.451Z" fill="url(#paint1_linear_10487_2336)"/>
<path d="M329.849 197.201C354.399 204.855 378.898 213.252 401.247 226.205L402.757 226.999C404.831 242.589 406.341 258.487 403.576 274.103C392.338 269.341 383.224 260.97 373.701 253.572C355.372 238.314 336.658 220.855 329.849 197.201Z" fill="#009BF2"/>
<defs>
<linearGradient id="paint0_linear_10487_2336" x1="401.272" y1="105.738" x2="57.2854" y2="326.614" gradientUnits="userSpaceOnUse">
<stop stop-color="#00A3FF"/>
<stop offset="1" stop-color="#3ADCFF"/>
</linearGradient>
<linearGradient id="paint1_linear_10487_2336" x1="401.272" y1="105.738" x2="57.2854" y2="326.614" gradientUnits="userSpaceOnUse">
<stop stop-color="#00A3FF"/>
<stop offset="1" stop-color="#3ADCFF"/>
</linearGradient>
</defs>
</svg>
