<svg width="512" height="512" viewBox="0 0 512 512" fill="none" xmlns="http://www.w3.org/2000/svg">
<path d="M369.493 378.026C337.066 373.759 297.813 371.199 255.999 371.199C214.186 371.199 174.933 373.759 142.506 378.026H51.1992V412.159C51.1992 435.199 142.506 453.119 255.999 453.119C369.493 453.119 460.799 435.199 460.799 412.159V378.026H369.493Z" fill="#4BDB4B"/>
<path d="M255.999 418.986C369.107 418.986 460.799 400.648 460.799 378.026C460.799 355.405 369.107 337.066 255.999 337.066C142.891 337.066 51.1992 355.405 51.1992 378.026C51.1992 400.648 142.891 418.986 255.999 418.986Z" fill="#145E02"/>
<path d="M430.083 203.947V203.093C429.229 197.973 427.523 192.853 426.669 187.733V186.88C425.816 184.32 424.963 181.76 424.109 180.053C424.109 180.053 424.109 180.053 424.109 179.2C422.403 174.08 420.696 169.813 418.989 164.693C418.136 162.133 417.283 160.427 415.576 157.867C414.723 155.307 413.016 153.6 412.163 151.04C411.309 148.48 409.603 146.773 407.896 144.213C407.043 142.507 405.336 139.947 404.483 138.24C404.483 138.24 404.483 137.387 403.629 137.387C401.069 133.12 397.656 128.853 395.096 125.44C395.096 125.44 395.096 124.587 394.243 124.587C392.536 122.88 390.829 120.32 389.123 118.613C387.416 116.907 385.709 115.2 384.003 113.493C382.296 111.787 380.589 110.08 378.883 108.373L378.029 107.52C376.323 105.813 374.616 104.107 372.909 103.253C372.909 103.253 372.909 103.253 372.056 102.4C370.349 100.693 368.643 98.9867 366.936 98.1334C366.936 98.1334 366.936 98.1334 366.083 98.1334C364.376 96.4267 361.816 94.7201 360.109 93.8667C358.403 92.1601 355.843 91.3067 354.136 89.6001C349.869 85.3334 345.603 82.7734 341.336 80.2134C341.336 80.2134 341.336 80.2134 340.483 80.2134C338.776 79.3601 336.216 77.6534 334.509 76.8001H333.656C329.389 74.2401 324.269 72.5334 320.003 70.8267H319.149C316.589 69.9734 314.029 69.1201 311.469 68.2667C308.909 67.4134 307.203 66.5601 304.643 65.7067C304.643 65.7067 304.643 65.7067 303.789 65.7067C301.229 64.8534 298.669 64.0001 296.109 64.0001C293.549 63.1467 290.989 63.1467 288.429 62.2934C288.429 62.2934 288.429 62.2934 287.576 62.2934C285.016 61.4401 282.456 61.4401 279.896 61.4401C275.629 60.5867 271.363 60.5867 267.949 60.5867C268.803 60.5867 269.656 60.5867 269.656 60.5867C271.363 59.7334 273.069 59.7334 274.776 59.7334C276.483 59.7334 278.189 59.7334 279.043 60.5867C280.749 60.5867 281.603 60.5867 283.309 61.4401C285.016 61.4401 285.869 62.2934 287.576 62.2934C288.429 62.2934 290.136 63.1467 290.989 63.1467C291.843 63.1467 293.549 64.0001 294.403 64.0001C295.256 64.0001 296.109 64.8534 297.816 64.8534C298.669 64.8534 299.523 65.7067 300.376 65.7067C300.376 65.7067 300.376 65.7067 301.229 65.7067C302.083 65.7067 302.936 66.5601 303.789 66.5601C303.789 66.5601 303.789 66.5601 304.643 66.5601C305.496 68.2667 306.349 68.2667 307.203 69.1201C307.203 69.1201 307.203 69.1201 308.056 69.1201C308.909 69.1201 309.763 69.9734 309.763 69.9734C309.763 69.9734 310.616 69.9734 310.616 70.8267C311.469 70.8267 311.469 71.6801 312.323 71.6801C312.323 71.6801 313.176 71.6801 313.176 72.5334C314.029 72.5334 314.029 73.3867 314.883 73.3867L315.736 74.2401C316.589 74.2401 316.589 75.0934 317.443 75.0934L318.296 75.9467L319.149 76.8001C320.003 77.6534 320.856 78.5067 320.856 79.3601C321.709 80.2134 326.829 87.0401 329.389 98.1334C332.803 111.787 331.949 125.44 335.363 139.093C336.216 141.653 336.216 143.36 337.069 145.92C337.069 146.773 337.069 146.773 337.923 147.627C338.776 149.333 338.776 151.04 339.629 152.747C339.629 153.6 339.629 153.6 340.483 154.453C356.696 205.653 388.269 230.4 430.936 262.827C432.643 253.44 433.496 244.053 433.496 234.667C432.643 224.427 431.789 214.187 430.083 203.947Z" fill="#EF7730"/>
<path d="M421.543 298.666C409.596 331.092 388.263 358.399 360.956 378.026H151.889C108.369 346.452 79.3561 294.399 79.3561 237.226C78.5028 183.466 102.396 135.679 139.089 103.252C141.649 101.546 145.063 102.399 145.063 105.812C147.623 175.786 196.263 245.759 273.063 279.892C321.703 301.226 372.903 305.492 417.276 294.399C419.836 292.692 422.396 296.106 421.543 298.666ZM255.996 58.8789C246.609 58.8789 236.369 59.7322 226.983 61.4389C223.569 62.2922 221.009 62.2922 217.596 63.1456C156.156 76.7989 172.369 105.812 256.849 136.532C424.956 196.266 424.956 196.266 430.929 210.772C418.983 125.439 345.596 58.8789 255.996 58.8789Z" fill="#F9D85E"/>
</svg>
