<svg width="512" height="512" viewBox="0 0 512 512" fill="none" xmlns="http://www.w3.org/2000/svg">
<path d="M256 512C397.385 512 512 397.385 512 256C512 114.615 397.385 0 256 0C114.615 0 0 114.615 0 256C0 397.385 114.615 512 256 512Z" fill="#010101"/>
<path d="M150.988 237.5L148.122 241.897C115.796 291.485 123.016 356.429 165.48 398.036C190.461 422.513 223.202 434.753 255.944 434.757C255.944 434.757 255.944 434.757 150.988 237.5Z" fill="#4BDB4B"/>
<path opacity="0.6" d="M255.956 297.451L151 237.5C255.956 434.757 255.956 434.757 255.956 434.757C255.956 391.796 255.956 342.568 255.956 297.451Z" fill="#4BDB4B"/>
<path opacity="0.6" d="M361.012 237.5L363.878 241.897C396.204 291.485 388.984 356.429 346.52 398.036C321.539 422.513 288.798 434.753 256.056 434.757C256.056 434.757 256.056 434.757 361.012 237.5Z" fill="#4BDB4B"/>
<path opacity="0.2" d="M256.044 297.451L361 237.5C256.045 434.757 256.044 434.757 256.044 434.757C256.044 391.796 256.044 342.568 256.044 297.451Z" fill="#4BDB4B"/>
<path opacity="0.2" d="M256 163.5V266.899L346.408 215.233L256 163.5Z" fill="#4BDB4B"/>
<path opacity="0.6" d="M255.973 163.5L165.5 215.232L255.973 266.899V163.5Z" fill="#4BDB4B"/>
<path d="M255.973 76.5L165.5 215.224L255.973 163.347V76.5Z" fill="#4BDB4B"/>
<path opacity="0.6" d="M256 163.414L346.477 215.293L256 76.5V163.414Z" fill="#4BDB4B"/>
</svg>
